<svg id="レイヤー_1" data-name="レイヤー 1" xmlns="http://www.w3.org/2000/svg" viewBox="0 0 341.56 22.33"><defs><style>.cls-1{fill:#df0615;}.cls-2{fill:#251e1c;}</style></defs><title>名称未設定-1</title><polygon class="cls-1" points="12.85 14.84 17.13 7.42 12.85 0 8.56 7.42 12.85 14.84"/><polygon class="cls-1" points="12.85 14.84 17.13 22.25 25.69 22.25 21.41 14.84 12.85 14.84"/><polygon class="cls-1" points="12.85 14.84 4.28 14.84 0 22.25 8.56 22.25 12.85 14.84"/><rect class="cls-2" x="29.4" y="18.41" width="20.64" height="3.87"/><rect class="cls-2" x="29.4" y="7.45" width="20.64" height="3.22"/><rect class="cls-2" x="30.05" y="12.61" width="19.35" height="3.23"/><polygon class="cls-2" points="69.39 6.8 65.52 6.8 65.52 8.1 65.52 9.38 73.26 9.38 73.26 8.1 69.39 8.1 69.39 6.8"/><path class="cls-2" d="M84.79,32.23H77.7v1.29h7.09v1.29H77.06V36.1h1.29l-1.29,2.58h2.58l-2.58,5.16h5.16L84.15,40,86.84,41l-1.4,2.79h6.45l.32-.64,1.61.64h3.87L92.86,41.9l1.61-3.23h3.23L96.4,36.1h1.29V34.81H90V33.52H97V32.23H90V30.94H84.79Zm0,6.45H88l-.54,1.07Zm6.45-2.58.65,1.29h-9l.65-1.29Z" transform="translate(-24.44 -21.55)"/><polygon class="cls-2" points="60.36 8.1 60.36 6.81 56.49 6.81 56.49 8.1 52.62 8.1 52.62 9.38 60.36 9.38 60.36 8.1"/><path class="cls-2" d="M140.55,28.35l-1.29,2.58h-.64V28.35H134.1v2.58h-1.29V28.35h-4.52v2.58h-.65l-1.29-2.58h-3.23l1.29,2.58h-1.29v1.29H127l.64,1.29h-4.51v1.29h7.74V36.1h-7.09v1.29h7.09v1.29h-7.74V40h3.21l-3.21,3.87h5.16l2.58-3.11v3.11H136V40.73l2.58,3.11h5.16L140.56,40h3.22V38.68H136V37.39h7.09V36.1H136V34.81h7.74V33.52h-4.51l.64-1.29h3.87V30.94h-1.29l1.29-2.58Zm-5.8,5.16h-2.59l-.64-1.29h3.86Z" transform="translate(-24.44 -21.55)"/><polygon class="cls-2" points="129.16 10.62 129.16 9.31 127.97 9.31 127.97 6.78 124.06 6.78 124.06 9.31 121.56 9.31 121.56 10.62 124.06 10.62 121.47 22.26 122.84 22.26 124.06 16.79 124.06 22.26 127.97 22.26 127.97 16.05 129.16 16.05 129.16 13.14 127.97 13.14 127.97 10.62 129.16 10.62"/><polygon class="cls-2" points="134.79 11.91 135.52 9.97 134.35 9.97 135.5 6.81 131.66 6.81 130.42 10.07 131.71 10.07 130.46 13.25 135.52 13.28 135.52 11.9 134.79 11.91"/><polygon class="cls-2" points="141.18 11.91 141.9 9.97 140.74 9.97 141.97 6.81 138.13 6.81 136.81 10.07 138.05 10.07 136.8 13.25 141.9 13.28 141.9 11.9 141.18 11.91"/><path class="cls-2" d="M166.36,38.3V35.63H165v1.21h-.93l-.39-1.21h-4.56l.4,1.21h-4.66v5.63l0,1.33h2.61a1.32,1.32,0,0,0,1.26-1.33v-.55H160V40l-1.26-.06V38.34H160l1.8,5.47h4.5l-.61-1.88h.62v-2h-1.27l-.52-1.63Z" transform="translate(-24.44 -21.55)"/><polygon class="cls-2" points="151.31 10.79 151.31 9.46 150.02 9.46 150.02 6.8 147.06 6.89 146.02 6.89 146.02 9.46 143.39 9.46 143.44 10.15 143.44 10.79 145.96 10.79 143.53 22.28 144.9 22.28 146.01 17.32 146.03 22.28 150.1 22.28 150.1 15.99 151.34 15.99 151.34 13.31 150.02 13.31 150.02 10.79 151.31 10.79"/><path class="cls-2" d="M183,34.87h-.75V33.51l-.5,0-1.45,0v1.33h-.73V33.51l-.55,0-1.41,0v1.33H177v2.67h.65v6.29h1.51a.63.63,0,0,0,.56-.66V37.54h.63l0,6.29h1.2l.76,0,0-6.32H183Z" transform="translate(-24.44 -21.55)"/><polygon class="cls-2" points="164.44 10.71 164.44 9.46 164.5 9.37 166.37 9.37 166.37 6.67 164.4 6.67 164.4 9.19 164.31 9.33 163.32 9.36 163.08 6.67 162.18 6.69 158.41 6.69 158.68 9.46 152.54 9.46 152.54 10.79 158.81 10.74 159.47 17.4 158.65 18.41 158.65 22.33 159.73 21.19 159.8 22.28 164.52 22.28 163.98 16.38 164.55 15.75 164.51 13.49 164.51 11.84 163.62 12.82 163.44 10.7 163.47 10.7 164.44 10.71"/><path class="cls-2" d="M115.27,29.22v-.86h-4.73v.86h-1.08v-.86h-4.73v.86H99.79v4.3H120.3v-4.3Zm-10.32,3.33h-1.29V31.9h1.29Zm0-1.61h-1.29v-.65h1.29Zm5.81,1.61h-1.29V31.9h1.29Zm0-1.61h-1.29v-.65h1.29Zm5.8,1.61h-1.29V31.9h1.29Zm0-1.61h-1.29v-.65h1.29Z" transform="translate(-24.44 -21.55)"/><path class="cls-2" d="M121.08,43.81,119.48,42l.69-.09V40l-2.21.31-1-1.11h3.32v-1H105.4l.06-.81h14.11v-1h-14l.05-.71H120.3V34.42H99.79v1.29h.65l-.65,8.15H104a1.07,1.07,0,0,0,1-1l.29-3.73h1.56v2.65l-.64.09v1.93l8.06-1.12v-1l1.61,2.15Zm-9.71-2.62v-2h1l1.28,1.71Z" transform="translate(-24.44 -21.55)"/><path class="cls-2" d="M221.46,35l.27.23,0,.06a3.23,3.23,0,0,1-2.63,1.49,4,4,0,0,1-2.24-.73,3.68,3.68,0,0,0-2-.71,2.88,2.88,0,0,0-2.15,1l-.06.06-.27-.24,0-.06A3.22,3.22,0,0,1,215,34.6a4,4,0,0,1,2.24.73,3.67,3.67,0,0,0,2,.71,2.89,2.89,0,0,0,2.15-1Zm9.17,2.26a.36.36,0,0,0-.38.38.8.8,0,0,0,.07.29.66.66,0,0,1,.06.23.27.27,0,0,1-.1.2.38.38,0,0,1-.27.1,3.4,3.4,0,0,1-.66-.11l-.79-.16a4.12,4.12,0,0,0-1.44.08,2.42,2.42,0,0,0,.21-.42,19.18,19.18,0,0,0,.57-2c.16-.62.29-1.07.39-1.34a4.35,4.35,0,0,1,.45-.89,1.38,1.38,0,0,1,.39-.39.47.47,0,0,1,.46,0,1.79,1.79,0,0,1,.35.26c.29.26.52.27.68.11a.36.36,0,0,0,.11-.26.62.62,0,0,0-.3-.48,1.17,1.17,0,0,0-.71-.22,2.14,2.14,0,0,0-1.26.46,3.36,3.36,0,0,0-1,1.38,12.85,12.85,0,0,0-.59,2,10.19,10.19,0,0,1-.38,1.36,1,1,0,0,1-.29.43,1.77,1.77,0,0,1-.67.21h-.05l-.1.45.12,0a8.6,8.6,0,0,1,1.28-.08c.33,0,1,0,2.11.15.33,0,.59,0,.79,0a1.52,1.52,0,0,0,1-.33,1.05,1.05,0,0,0,.39-.81.65.65,0,0,0-.12-.41A.4.4,0,0,0,230.63,37.22Zm4.78-2.41a1.73,1.73,0,0,1,.34,1.14,3,3,0,0,1-.8,2,2.31,2.31,0,0,1-1.71.91,1.21,1.21,0,0,1-.92-.38,1.43,1.43,0,0,1-.35-1,3.49,3.49,0,0,1,.61-2,2.31,2.31,0,0,1,1.95-1.14A1.1,1.1,0,0,1,235.41,34.81Zm-.87.4a.51.51,0,0,0-.43-.28c-.25,0-.5.19-.75.57a3,3,0,0,0-.38,1.63,1.78,1.78,0,0,0,.23,1,.46.46,0,0,0,.41.24.88.88,0,0,0,.69-.48,2.93,2.93,0,0,0,.42-1.62A2,2,0,0,0,234.54,35.21Zm6.29,2.64,0,0-.21-.31-.07.05c-.15.11-.3.24-.44.37s-.36.26-.41.25a.22.22,0,0,1,0-.11,5.87,5.87,0,0,1,.31-1.33c.23-.73.37-1.2.42-1.42a1.66,1.66,0,0,0,0-.37.61.61,0,0,0-.13-.41c-.2-.23-.57-.21-1.09.11a6.63,6.63,0,0,0-1.08.85l.16-.71a.91.91,0,0,0,0-.18.2.2,0,0,0-.09-.17.34.34,0,0,0-.22-.06,1.53,1.53,0,0,0-.69.21,5.11,5.11,0,0,0-1,.83l-.06.06.29.3.06-.07a3.17,3.17,0,0,1,.56-.49c.12-.08.17-.09.19-.09a.1.1,0,0,1,0,.05.77.77,0,0,1,0,.14l-.44,1.9c-.1.45-.22.93-.36,1.43l0,.11h.92l.42-1.81a2.3,2.3,0,0,1,.32-.83,3.09,3.09,0,0,1,.76-.71,1,1,0,0,1,.47-.19c.1,0,.1,0,.1.07a4.63,4.63,0,0,1-.17.71,10.85,10.85,0,0,0-.56,2.24.81.81,0,0,0,.12.5.43.43,0,0,0,.36.17,1.12,1.12,0,0,0,.56-.21A4.62,4.62,0,0,0,240.83,37.85Zm3.88-3.49.59-.13,0,.14c-.24.78-.47,1.57-.66,2.34a13.77,13.77,0,0,0-.3,1.39,4.71,4.71,0,0,0,0,.7,3.94,3.94,0,0,1-.16,1.18,2,2,0,0,1-.81,1,2.51,2.51,0,0,1-1.4.39,1.72,1.72,0,0,1-1.11-.34,1,1,0,0,1-.42-.79,1.21,1.21,0,0,1,.33-.81,3.51,3.51,0,0,1,1-.66l.1-.05a.52.52,0,0,1-.34-.2.78.78,0,0,1-.16-.51,3.6,3.6,0,0,1,.56-1.87,3.93,3.93,0,0,1,1.34-1.39,2.4,2.4,0,0,1,1.23-.29h.28Zm-1.31,3.09a3.83,3.83,0,0,0,.37-1l.34-1.24-.32,0a1.26,1.26,0,0,0-.76.23,1.84,1.84,0,0,0-.55.8,3.85,3.85,0,0,0-.33,1.37.51.51,0,0,0,.11.34.3.3,0,0,0,.23.13.9.9,0,0,0,.45-.18A1.55,1.55,0,0,0,243.4,37.46Zm-1.12,1.48a5.42,5.42,0,0,0-1,.81.81.81,0,0,0-.18.5.59.59,0,0,0,.23.45.8.8,0,0,0,.56.21,1.32,1.32,0,0,0,.62-.16,1.57,1.57,0,0,0,.53-.46,1.77,1.77,0,0,0,.31-.68,5,5,0,0,0,.09-1h0c0-.08,0-.23,0-.47C243.19,38.3,242.8,38.58,242.28,38.94Zm10.83-1.72a.36.36,0,0,0-.37.38.81.81,0,0,0,.07.29.67.67,0,0,1,.06.23.27.27,0,0,1-.11.2.37.37,0,0,1-.26.1,3.24,3.24,0,0,1-.66-.11l-.79-.16a4.12,4.12,0,0,0-1.44.08,2.31,2.31,0,0,0,.21-.42,18.84,18.84,0,0,0,.57-2c.16-.62.29-1.07.39-1.34a4.3,4.3,0,0,1,.45-.89,1.4,1.4,0,0,1,.39-.39.47.47,0,0,1,.46,0,1.85,1.85,0,0,1,.35.26c.29.26.52.27.68.11a.36.36,0,0,0,.11-.26.62.62,0,0,0-.3-.48,1.17,1.17,0,0,0-.71-.22,2.14,2.14,0,0,0-1.27.46,3.36,3.36,0,0,0-1,1.38,12.85,12.85,0,0,0-.59,2,10.27,10.27,0,0,1-.38,1.36,1,1,0,0,1-.29.43,1.77,1.77,0,0,1-.67.21h-.05l-.1.45.12,0a8.6,8.6,0,0,1,1.28-.08c.33,0,1,0,2.11.15.33,0,.59,0,.79,0a1.51,1.51,0,0,0,1-.33,1,1,0,0,0,.39-.81.65.65,0,0,0-.12-.41A.4.4,0,0,0,253.11,37.22Zm2.62,1.49a6.59,6.59,0,0,0,1-.84l.06-.06-.32-.31-.06.06c-.6.57-.74.59-.77.58a.1.1,0,0,1,0-.07,12.4,12.4,0,0,1,.52-2.11,7.28,7.28,0,0,0,.33-1.25.31.31,0,0,0-.12-.25c-.19-.16-.58-.11-1,.15a3.93,3.93,0,0,0-.93.8l-.06.07.35.27.05-.05a4.71,4.71,0,0,1,.55-.5.24.24,0,0,1,.19-.05.61.61,0,0,1,0,.18,14.85,14.85,0,0,0-.75,3.08.51.51,0,0,0,.12.36.45.45,0,0,0,.34.14A1.18,1.18,0,0,0,255.73,38.71Zm.79-5.37a.54.54,0,0,0,.4-.2.64.64,0,0,0,.17-.44.44.44,0,0,0-.13-.32.42.42,0,0,0-.31-.13.54.54,0,0,0-.41.19.62.62,0,0,0-.17.44.47.47,0,0,0,.12.33A.42.42,0,0,0,256.51,33.33Zm3,1.38.22-1h0a3.42,3.42,0,0,1,.41-1.07.65.65,0,0,1,.52-.37,1.88,1.88,0,0,1,.36,0,3.9,3.9,0,0,0,.68.11.47.47,0,0,0,.33-.12.42.42,0,0,0,.13-.31.44.44,0,0,0-.19-.35.82.82,0,0,0-.51-.14,2.4,2.4,0,0,0-1.19.36,2.92,2.92,0,0,0-1,1,6.43,6.43,0,0,0-.67,1.82h-1.19l-.13.52h1.19l-1,4a2.82,2.82,0,0,1-.43,1.1.89.89,0,0,1-.66.21,5.3,5.3,0,0,1-.66,0l-.32,0a.59.59,0,0,0-.38.11.39.39,0,0,0-.14.31.45.45,0,0,0,.2.37.85.85,0,0,0,.53.14,2.59,2.59,0,0,0,1.8-.77,4.49,4.49,0,0,0,1.19-2.24l.77-3.12h1.34l.12-.52Zm4.29-.13a.72.72,0,0,1,.21.55,1.19,1.19,0,0,1-.24.69,2.71,2.71,0,0,1-.83.68c-.2.11-.6.3-1.2.58a3,3,0,0,0,0,.46.71.71,0,0,0,.09.44c.12.15.38.14.67,0a6.31,6.31,0,0,0,.95-.62l.07-.05.26.35-.05.05a3.48,3.48,0,0,1-2.16,1.19.73.73,0,0,1-.61-.27,1.32,1.32,0,0,1-.2-.82,4.14,4.14,0,0,1,.66-2.17,2.16,2.16,0,0,1,1.82-1.24A.84.84,0,0,1,263.77,34.58Zm-.77.48a.29.29,0,0,0-.23-.1.48.48,0,0,0-.31.12,1.29,1.29,0,0,0-.37.53,4.94,4.94,0,0,0-.29.94,3.6,3.6,0,0,0,1-.68.77.77,0,0,0,.25-.51A.42.42,0,0,0,263,35.06Zm12.82-.1-.06.06a2.89,2.89,0,0,1-2.15,1,3.67,3.67,0,0,1-2-.71,4,4,0,0,0-2.24-.73,3.22,3.22,0,0,0-2.62,1.49l0,.06.27.24.06-.06a2.88,2.88,0,0,1,2.15-1,3.67,3.67,0,0,1,2,.71,4,4,0,0,0,2.24.73A3.23,3.23,0,0,0,276,35.26l0-.06Zm6.59-3c-.07,1.29.15,5.66-3.77,7.94A4.72,4.72,0,0,1,279.86,41a8.69,8.69,0,0,0,3.44-4.58A7.8,7.8,0,0,0,287.12,41a4.08,4.08,0,0,1,1.09-1.23c-3.45-1.61-4.1-5.26-4.24-6.88,0-.24,0-.43,0-.59.18,0,.29-.1.3-.22Zm11.51,4.4a13.82,13.82,0,0,1-1.83.15c0-.48.1-1,.17-1.5h.89l.87,0,.08-1.38c-.49,0-1.21,0-1.64,0,.07-.43.15-.86.23-1.17.22,0,.35-.13.36-.26L291.1,32c-.05.48-.12,1-.18,1.54a5.7,5.7,0,0,1-1.7-.44l-.29,1.38a6.07,6.07,0,0,0,1.84.43c-.06.56-.1,1.07-.15,1.55-.35,0-.74-.06-.74-.32s.23-.47.57-.69L289.3,35a1.87,1.87,0,0,0-.79,1.42c0,1.18,1.35,1.31,2,1.37,0,.12,0,.22,0,.39,0,1.35.35,2.64,2.82,2.64.65,0,3.38,0,3.38-2.12a4.26,4.26,0,0,0-.87-2.28,13.92,13.92,0,0,1-1.4.45,2.63,2.63,0,0,1,.66,1.56.77.77,0,0,1-.52.82,3.92,3.92,0,0,1-1.2.18c-.66,0-1.41-.1-1.41-1.13,0-.16,0-.28,0-.44a16.37,16.37,0,0,0,1.93-.11Zm3.29-.79V36.9h1v1.83a14.31,14.31,0,0,1-1.27.8l.71,1.58a.2.2,0,0,0,.16-.23c.35-.28.77-.63,1.17-1,.9,1,1.92,1.09,4.36,1.09.94,0,1.94,0,2.68-.07a7.3,7.3,0,0,1,.45-1.46c-1,.09-2.38.13-3.55.13-1.69,0-2.77,0-3.32-.92V35.58Zm0-2.73a7.87,7.87,0,0,1,1.54,1.56l1.14-.95A8.11,8.11,0,0,0,298.24,32Zm3.44,6.52H302v-.16h2v.16h1.42V34.5h-2c.07-.11.12-.23.18-.33h2.65V33h-1.51c.2-.24.4-.49.55-.7.16,0,.25,0,.29-.13l-1.59-.43a7.32,7.32,0,0,1-.58,1.23l.08,0h-1.11l.16-.07a4.42,4.42,0,0,0-.73-1.18l-1.1.46a5.8,5.8,0,0,1,.48.79h-1.27v1.14h2.23c0,.11,0,.23-.08.33h-1.4ZM302,35.81v-.28h2v.28Zm2,.91V37h-2v-.29Zm-2,1.19h2v.3h-2Zm14-.2h-8.82V39h2.51A13.49,13.49,0,0,1,307,40a10,10,0,0,1,1,1.1,16.88,16.88,0,0,0,3.06-1.22.4.4,0,0,0,.21,0l-1-.83h2.67l-1,.85a18.24,18.24,0,0,1,2.76,1.25l1.49-1c-.67-.32-1.8-.77-2.82-1.13H316Zm-7.45-5.61v5.29h6.1V32.09ZM310,33.55v-.39h3.2v.39Zm0,1.38v-.39h3.2v.39Zm0,1.38v-.39h3.2v.39Zm12.13.06a13.87,13.87,0,0,1-1.83.15c0-.48.1-1,.17-1.5h.89l.87,0,.08-1.38c-.49,0-1.21,0-1.64,0,.07-.43.15-.86.23-1.17.22,0,.35-.13.36-.26l-2-.23c0,.48-.12,1-.18,1.54a5.67,5.67,0,0,1-1.69-.44l-.3,1.38a6.06,6.06,0,0,0,1.84.43c-.06.56-.1,1.07-.15,1.55-.34,0-.74-.06-.74-.32s.23-.47.57-.69L317.47,35a1.88,1.88,0,0,0-.79,1.42c0,1.18,1.35,1.31,2,1.37,0,.12,0,.22,0,.39,0,1.35.35,2.64,2.82,2.64.65,0,3.38,0,3.38-2.12a4.27,4.27,0,0,0-.87-2.28,14,14,0,0,1-1.4.45,2.62,2.62,0,0,1,.66,1.56.77.77,0,0,1-.52.82,3.92,3.92,0,0,1-1.2.18c-.66,0-1.41-.1-1.41-1.13,0-.16,0-.28,0-.44a16.4,16.4,0,0,0,1.93-.11Zm3.11,2.56a23.34,23.34,0,0,1,2,2.2l1.22-1.1A20.52,20.52,0,0,0,326.32,38Zm14.32-1.28V36.39H333.6v-.32h4.6V35h-4.6v-.32h4.6V33.57h-4.6v-.34h4.88V32.07h-6.34v4.32h-1.61v1.26h1.6v2l-1.21.12.51,1.44a.22.22,0,0,0,.18-.17c1-.14,2.45-.35,3.85-.59l-.05-1.17-1.8.22V37.65h1a5.62,5.62,0,0,0,4.24,3.49,5.59,5.59,0,0,1,.91-1.29,6.63,6.63,0,0,1-2-.65c.47-.26,1-.55,1.31-.78a.43.43,0,0,0,.33-.06l-.93-.71Zm-1.68,0a12.06,12.06,0,0,1-1.12.79,4.49,4.49,0,0,1-.63-.79Zm8.86,2.22a30.73,30.73,0,0,0-3.66-3c-.35-.24-.63-.43-.63-.58s.24-.34.45-.54c.81-.75,2.13-1.9,3-2.68a.45.45,0,0,0,.39-.13l-1.67-1.07c-.67.72-2.47,2.53-3.5,3.5a1.23,1.23,0,0,0-.44,1c0,.54.12.82.76,1.31a28.26,28.26,0,0,1,3.75,3.4Zm8.76-4.25h-1.72v-.47c.2,0,.28-.1.29-.21l-.93,0h0l1.7-.08a3.27,3.27,0,0,1,.24.52l1.28-.6a8.79,8.79,0,0,0-1.45-2.14l-1.18.55c.13.16.27.33.39.51l-1.55,0a12.57,12.57,0,0,0,.77-1.29c.16,0,.27,0,.31-.14L352,31.77a10.64,10.64,0,0,1-.9,1.89h-.84V32.08H347v1.32h1.81v1h-1.62c0,1.13-.18,2.54-.32,3.46l1.23.19.05-.38h.66a5.15,5.15,0,0,1-.3,2.1.4.4,0,0,1-.34.13c-.19,0-.56,0-.95,0a3.07,3.07,0,0,1,.39,1.29c1.2,0,1.64,0,2-.49s.4-1.36.51-3.76l0-.38-.73-.08-.29,0h-.9c0-.27,0-.53.07-.8h.46v.29h1.36V33.78l.36,1.36a.2.2,0,0,0,.2-.16l1.61-.07v.7h-1.65v3h1.65v.81c-.85,0-1.62,0-2.21,0l.4,1.53a.23.23,0,0,0,.21-.16c1,0,2.52-.15,4-.26a5.06,5.06,0,0,1,.23.65l1.23-.58a7.73,7.73,0,0,0-1.11-2h.32Zm-3.52,1.18h.42v.6h-.42Zm2.23.6h-.43v-.6h.43Zm-.43,1.17h1l-.84.38c.09.12.17.26.26.38h-.43Zm9.51,1.3a30.74,30.74,0,0,0-3.66-3c-.35-.24-.63-.43-.63-.58s.24-.34.45-.54c.81-.75,2.13-1.9,3-2.68a.44.44,0,0,0,.39-.13l-1.67-1.07c-.67.72-2.47,2.53-3.5,3.5a1.23,1.23,0,0,0-.43,1c0,.54.12.82.76,1.31a28.2,28.2,0,0,1,3.75,3.4Zm1.37-1.5A1.38,1.38,0,1,0,366,39.75,1.38,1.38,0,0,0,364.62,38.37Zm0,2.26a.89.89,0,1,1,.89-.89A.88.88,0,0,1,364.62,40.63Z" transform="translate(-24.44 -21.55)"/></svg>